<svg 
 xmlns="http://www.w3.org/2000/svg"
 xmlns:xlink="http://www.w3.org/1999/xlink"
 width="1170px" height="52px">
<path fill-rule="evenodd"  fill="rgb(0, 0, 0)"
 d="M0.656,3.625 L0.656,0.187 L1169.219,0.187 L1169.219,3.625 L0.656,3.625 ZM645.548,15.205 L650.222,15.205 L661.477,47.564 L665.413,51.501 L649.791,51.501 L653.605,47.626 L651.575,41.474 L640.689,41.474 L638.537,47.626 L642.350,51.501 L630.050,51.501 L633.986,47.564 L645.548,15.205 ZM650.222,37.783 L646.224,25.787 L641.981,37.783 L650.222,37.783 ZM695.793,23.880 L690.873,18.958 L685.769,18.958 L685.769,47.626 L689.705,51.501 L674.330,51.501 L678.204,47.626 L678.204,18.958 L673.161,18.958 L668.241,23.880 L668.241,15.205 L695.793,15.205 L695.793,23.880 ZM700.652,15.205 L716.027,15.205 L712.091,19.081 L712.091,31.569 L724.944,18.712 L721.377,15.205 L733.432,15.205 L719.102,29.539 L735.092,51.501 L722.976,51.501 L722.976,47.749 L712.091,32.615 L712.091,47.626 L716.027,51.501 L700.652,51.501 L704.526,47.626 L704.526,19.081 L700.652,15.205 ZM757.835,15.214 L743.370,51.501 L737.917,51.501 L752.382,15.214 L757.835,15.214 ZM926.950,45.479 L953.278,45.479 L953.278,51.624 L917.315,51.624 L917.315,15.630 L926.950,15.630 L926.950,45.479 ZM970.173,51.624 L960.538,51.624 L960.538,15.630 L970.173,15.630 L970.173,51.624 ZM1012.378,43.333 L1012.378,15.630 L1021.471,15.630 L1021.471,51.624 L1009.596,51.624 L988.969,23.922 L988.969,51.624 L979.876,51.624 L979.876,15.630 L991.751,15.630 L1012.378,43.333 ZM1040.130,31.822 L1060.419,15.630 L1071.886,15.630 L1050.512,31.969 L1072.615,51.624 L1060.198,51.624 L1040.130,32.213 L1040.130,51.624 L1030.767,51.624 L1030.767,15.630 L1040.130,15.630 L1040.130,31.822 ZM1105.812,36.281 L1081.656,36.281 L1081.656,32.812 L1105.812,32.812 L1105.812,36.281 Z"/>
</svg>