<svg 
 xmlns="http://www.w3.org/2000/svg"
 xmlns:xlink="http://www.w3.org/1999/xlink"
 width="1170px" height="52px">
<path fill-rule="evenodd"  fill="rgb(0, 0, 0)"
 d="M0.656,3.625 L0.656,0.187 L1169.219,0.187 L1169.219,3.625 L0.656,3.625 ZM645.548,15.205 L650.222,15.205 L661.477,47.564 L665.413,51.501 L649.791,51.501 L653.605,47.626 L651.575,41.474 L640.689,41.474 L638.537,47.626 L642.350,51.501 L630.050,51.501 L633.986,47.564 L645.548,15.205 ZM650.222,37.783 L646.224,25.787 L641.981,37.783 L650.222,37.783 ZM695.793,23.880 L690.873,18.958 L685.769,18.958 L685.769,47.626 L689.705,51.501 L674.330,51.501 L678.204,47.626 L678.204,18.958 L673.161,18.958 L668.241,23.880 L668.241,15.205 L695.793,15.205 L695.793,23.880 ZM700.652,15.205 L716.027,15.205 L712.091,19.081 L712.091,31.569 L724.944,18.712 L721.377,15.205 L733.432,15.205 L719.102,29.539 L735.092,51.501 L722.976,51.501 L722.976,47.749 L712.091,32.615 L712.091,47.626 L716.027,51.501 L700.652,51.501 L704.526,47.626 L704.526,19.081 L700.652,15.205 ZM757.835,15.214 L743.370,51.501 L737.917,51.501 L752.382,15.214 L757.835,15.214 ZM910.012,15.213 L926.675,15.213 C929.012,15.213 931.204,15.696 933.254,16.659 C935.303,17.622 937.076,18.955 938.573,20.656 C940.069,22.358 941.226,24.306 942.047,26.499 C942.867,28.693 943.277,30.980 943.277,33.357 C943.277,35.736 942.867,38.022 942.047,40.215 C941.226,42.409 940.069,44.357 938.573,46.058 C937.076,47.760 935.303,49.093 933.254,50.056 C931.204,51.020 929.012,51.501 926.675,51.501 L910.012,51.501 L913.886,47.627 L913.886,19.088 L910.012,15.213 ZM921.449,47.750 L925.384,47.750 C926.941,47.750 928.294,47.340 929.442,46.519 C930.589,45.700 931.532,44.582 932.270,43.168 C933.008,41.753 933.541,40.206 933.869,38.524 C934.197,36.843 934.361,35.121 934.361,33.357 C934.361,31.595 934.197,29.862 933.869,28.160 C933.541,26.459 933.008,24.911 932.270,23.516 C931.532,22.123 930.589,21.016 929.442,20.195 C928.294,19.375 926.941,18.965 925.384,18.965 L921.449,18.965 L921.449,47.750 ZM948.933,15.213 L974.512,15.213 L974.512,23.885 L969.593,18.965 L960.370,18.965 L960.370,30.343 L966.765,30.343 L970.638,26.407 L970.638,37.970 L966.765,34.095 L960.370,34.095 L960.370,47.750 L969.593,47.750 L974.512,42.829 L974.512,51.501 L948.933,51.501 L952.807,47.627 L952.807,19.088 L948.933,15.213 ZM980.168,15.213 L1005.747,15.213 L1005.747,23.885 L1000.828,18.965 L991.605,18.965 L991.605,30.343 L998.000,30.343 L1001.874,26.407 L1001.874,37.970 L998.000,34.095 L991.605,34.095 L991.605,47.627 L995.540,51.501 L980.168,51.501 L984.042,47.627 L984.042,19.088 L980.168,15.213 ZM1029.740,15.214 L1015.275,51.501 L1009.822,51.501 L1024.287,15.214 L1029.740,15.214 Z"/>
</svg>