<svg 
 xmlns="http://www.w3.org/2000/svg"
 xmlns:xlink="http://www.w3.org/1999/xlink"
 width="661px" height="35px">
<path fill-rule="evenodd"  fill="rgb(255, 255, 255)"
 d="M657.909,25.791 C657.926,26.206 658.003,26.517 658.136,26.725 C658.270,26.932 658.493,27.070 658.805,27.139 C659.117,27.209 659.576,27.290 660.183,27.382 L660.183,28.280 L652.986,28.280 L652.986,27.382 C653.593,27.290 654.052,27.209 654.364,27.139 C654.676,27.070 654.899,26.932 655.033,26.725 C655.167,26.517 655.242,26.206 655.260,25.791 C655.278,25.376 655.287,24.766 655.287,23.959 L655.287,8.401 C655.287,7.595 655.278,6.984 655.260,6.569 C655.242,6.154 655.167,5.843 655.033,5.636 C654.899,5.428 654.676,5.290 654.364,5.221 C654.052,5.152 653.593,5.071 652.986,4.979 L652.986,4.080 L660.183,4.080 L660.183,4.979 C659.576,5.071 659.117,5.152 658.805,5.221 C658.493,5.290 658.270,5.428 658.136,5.636 C658.003,5.843 657.926,6.154 657.909,6.569 C657.891,6.984 657.882,7.595 657.882,8.401 L657.882,23.959 C657.882,24.766 657.891,25.376 657.909,25.791 ZM649.094,5.929 C648.693,6.564 648.492,7.433 648.492,8.540 L648.492,23.959 C648.492,24.766 648.501,25.376 648.519,25.791 C648.536,26.206 648.612,26.517 648.746,26.725 C648.880,26.932 649.103,27.070 649.415,27.139 C649.727,27.209 650.186,27.290 650.793,27.382 L650.793,28.280 L643.596,28.280 L643.596,27.382 C644.202,27.290 644.662,27.209 644.974,27.139 C645.286,27.070 645.509,26.932 645.643,26.725 C645.777,26.517 645.852,26.206 645.870,25.791 C645.888,25.376 645.897,24.766 645.897,23.959 L645.897,9.439 L645.843,9.439 L638.567,28.488 L638.139,28.488 L630.915,9.611 L630.862,9.611 L630.862,23.613 C630.862,23.982 630.875,24.316 630.902,24.616 C630.929,24.915 630.960,25.203 630.996,25.480 C631.067,26.102 631.312,26.552 631.731,26.828 C632.150,27.105 632.672,27.290 633.296,27.382 L633.296,28.280 L627.277,28.280 L627.277,27.382 C627.901,27.290 628.423,27.105 628.842,26.828 C629.261,26.552 629.506,26.102 629.578,25.480 C629.613,25.203 629.649,24.915 629.685,24.616 C629.720,24.316 629.738,23.982 629.738,23.613 L629.738,7.952 C629.595,7.537 629.417,7.151 629.203,6.794 C628.989,6.437 628.739,6.126 628.454,5.860 C628.169,5.596 627.870,5.382 627.558,5.221 C627.246,5.060 626.929,4.979 626.608,4.979 L626.608,4.080 L631.664,4.080 L639.128,23.406 L646.833,4.080 L651.167,4.080 L651.167,4.979 C650.186,4.979 649.495,5.296 649.094,5.929 ZM619.546,27.382 C620.384,27.382 620.883,27.128 621.044,26.621 C621.204,26.114 621.178,25.480 620.964,24.719 L619.813,20.260 L612.991,20.260 L611.761,24.892 C611.582,25.561 611.613,26.143 611.854,26.638 C612.095,27.134 612.510,27.382 613.098,27.382 L613.098,28.280 L608.229,28.280 L608.229,27.382 C608.586,27.382 608.942,27.238 609.299,26.949 C609.656,26.661 609.941,26.229 610.155,25.653 C610.352,25.146 610.597,24.426 610.891,23.492 C611.185,22.559 611.511,21.493 611.868,20.294 C612.224,19.096 612.603,17.794 613.005,16.388 C613.406,14.982 613.816,13.547 614.235,12.083 C614.654,10.620 615.069,9.168 615.479,7.727 C615.889,6.287 616.282,4.933 616.656,3.665 L618.155,3.665 C618.458,4.818 618.783,6.062 619.131,7.399 C619.479,8.736 619.827,10.084 620.174,11.444 C620.522,12.804 620.870,14.140 621.218,15.454 C621.565,16.768 621.891,18.001 622.194,19.153 C622.497,20.306 622.774,21.331 623.024,22.230 C623.273,23.129 623.469,23.832 623.612,24.339 C623.897,25.307 624.187,26.056 624.482,26.586 C624.776,27.117 625.208,27.382 625.779,27.382 L625.779,28.280 L619.546,28.280 L619.546,27.382 ZM616.630,7.710 L616.576,7.710 L613.393,18.946 L619.465,18.946 L616.630,7.710 ZM605.180,6.880 C605.144,7.157 605.108,7.445 605.073,7.744 C605.037,8.044 605.019,8.379 605.019,8.747 L605.019,28.280 L604.110,28.280 C601.969,25.008 599.811,21.700 597.635,18.358 C595.459,15.017 593.275,11.674 591.081,8.332 L591.081,23.613 C591.081,23.982 591.099,24.316 591.134,24.616 C591.170,24.915 591.206,25.203 591.242,25.480 C591.313,26.102 591.576,26.552 592.031,26.828 C592.486,27.105 593.158,27.290 594.051,27.382 L594.051,28.280 L587.496,28.280 L587.496,27.382 C588.138,27.290 588.664,27.105 589.075,26.828 C589.485,26.552 589.725,26.102 589.797,25.480 C589.832,25.203 589.868,24.915 589.904,24.616 C589.939,24.316 589.957,23.982 589.957,23.613 L589.957,7.330 C589.583,6.707 589.164,6.160 588.700,5.687 C588.236,5.215 587.621,4.979 586.854,4.979 L586.854,4.080 L591.723,4.080 C593.720,7.238 595.740,10.384 597.783,13.518 C599.825,16.653 601.844,19.799 603.842,22.956 L603.896,22.956 L603.896,8.747 C603.896,8.379 603.878,8.044 603.842,7.744 C603.806,7.445 603.771,7.157 603.735,6.880 C603.664,6.258 603.401,5.809 602.946,5.532 C602.491,5.255 601.818,5.071 600.926,4.979 L600.926,4.080 L607.480,4.080 L607.480,4.979 C606.856,5.071 606.334,5.255 605.915,5.532 C605.496,5.809 605.251,6.258 605.180,6.880 ZM582.427,24.823 C581.526,26.022 580.456,26.967 579.216,27.658 C577.977,28.349 576.617,28.695 575.137,28.695 C573.853,28.695 572.657,28.384 571.552,27.762 C570.446,27.139 569.487,26.281 568.676,25.186 C567.864,24.092 567.222,22.812 566.750,21.349 C566.277,19.885 566.041,18.312 566.041,16.629 C566.041,14.763 566.304,13.040 566.830,11.461 C567.356,9.882 568.074,8.511 568.984,7.347 C569.893,6.183 570.959,5.279 572.181,4.633 C573.402,3.988 574.709,3.665 576.100,3.665 C577.544,3.665 578.837,4.028 579.979,4.754 C581.120,5.480 582.083,6.413 582.868,7.554 C583.653,8.695 584.250,9.963 584.661,11.357 C585.071,12.752 585.276,14.118 585.276,15.454 C585.276,17.275 585.026,18.992 584.527,20.605 C584.027,22.219 583.327,23.625 582.427,24.823 ZM581.638,11.184 C581.245,9.721 580.732,8.522 580.099,7.589 C579.466,6.655 578.748,5.970 577.946,5.532 C577.143,5.094 576.331,4.875 575.511,4.875 C574.370,4.875 573.393,5.175 572.582,5.774 C571.770,6.374 571.106,7.145 570.589,8.090 C570.071,9.036 569.692,10.101 569.452,11.288 C569.211,12.476 569.091,13.656 569.091,14.832 C569.091,16.929 569.282,18.768 569.666,20.346 C570.049,21.925 570.553,23.245 571.177,24.304 C571.801,25.365 572.524,26.160 573.344,26.690 C574.164,27.220 575.003,27.485 575.859,27.485 C577.107,27.485 578.142,27.128 578.962,26.413 C579.782,25.699 580.434,24.800 580.915,23.717 C581.397,22.634 581.735,21.447 581.932,20.156 C582.128,18.865 582.226,17.644 582.226,16.491 C582.226,14.417 582.030,12.648 581.638,11.184 ZM561.198,28.056 C560.984,27.906 560.775,27.704 560.570,27.451 C560.365,27.197 560.151,26.886 559.928,26.517 C559.705,26.149 559.460,25.745 559.192,25.307 L553.440,16.111 L552.852,16.111 L552.852,23.959 C552.852,24.766 552.860,25.376 552.878,25.791 C552.896,26.206 552.972,26.517 553.106,26.725 C553.240,26.932 553.462,27.070 553.775,27.139 C554.086,27.209 554.546,27.290 555.152,27.382 L555.152,28.280 L547.956,28.280 L547.956,27.382 C548.562,27.290 549.021,27.209 549.334,27.139 C549.646,27.070 549.869,26.932 550.002,26.725 C550.136,26.517 550.212,26.206 550.230,25.791 C550.247,25.376 550.257,24.766 550.257,23.959 L550.257,8.401 C550.257,7.595 550.247,6.984 550.230,6.569 C550.212,6.154 550.136,5.843 550.002,5.636 C549.869,5.428 549.646,5.290 549.334,5.221 C549.021,5.152 548.562,5.071 547.956,4.979 L547.956,4.080 L555.152,4.080 L555.152,4.979 C554.546,5.071 554.086,5.152 553.775,5.221 C553.462,5.290 553.240,5.428 553.106,5.636 C552.972,5.843 552.896,6.154 552.878,6.569 C552.860,6.984 552.852,7.595 552.852,8.401 L552.852,15.247 C553.262,15.201 553.614,15.068 553.908,14.849 C554.203,14.630 554.519,14.302 554.858,13.864 L560.316,6.777 C560.601,6.385 560.734,6.068 560.717,5.826 C560.699,5.584 560.592,5.400 560.396,5.273 C560.199,5.146 559.955,5.065 559.660,5.031 C559.366,4.996 559.103,4.979 558.871,4.979 L558.871,4.080 L563.820,4.080 L563.820,4.979 C563.428,5.186 562.986,5.590 562.496,6.189 C562.005,6.788 561.484,7.445 560.931,8.159 L555.420,15.281 C556.115,16.249 556.869,17.350 557.680,18.583 C558.492,19.816 559.312,21.032 560.142,22.230 C560.971,23.429 561.782,24.529 562.576,25.532 C563.370,26.534 564.088,27.278 564.730,27.762 L564.730,28.280 L561.921,28.280 C561.653,28.280 561.412,28.206 561.198,28.056 ZM543.167,30.268 C542.793,31.086 542.405,31.893 542.004,32.688 C541.602,33.483 541.277,34.111 541.027,34.572 L540.144,33.466 C540.715,32.567 541.121,31.738 541.362,30.977 C541.602,30.216 541.750,29.525 541.803,28.903 C541.857,28.280 541.852,27.716 541.790,27.209 C541.727,26.702 541.678,26.252 541.643,25.860 C541.625,25.722 541.696,25.538 541.857,25.307 C542.017,25.077 542.204,24.840 542.418,24.598 C542.632,24.356 542.833,24.149 543.020,23.976 C543.208,23.803 543.328,23.717 543.381,23.717 C543.488,23.717 543.609,23.815 543.743,24.011 C543.876,24.207 544.006,24.455 544.131,24.754 C544.255,25.054 544.358,25.365 544.438,25.687 C544.518,26.010 544.559,26.298 544.559,26.552 C544.559,26.828 544.420,27.312 544.144,28.004 C543.867,28.695 543.542,29.450 543.167,30.268 ZM535.075,24.823 C534.174,26.022 533.104,26.967 531.865,27.658 C530.625,28.349 529.265,28.695 527.785,28.695 C526.501,28.695 525.306,28.384 524.200,27.762 C523.094,27.139 522.135,26.281 521.324,25.186 C520.512,24.092 519.870,22.812 519.398,21.349 C518.925,19.885 518.689,18.312 518.689,16.629 C518.689,14.763 518.952,13.040 519.478,11.461 C520.004,9.882 520.722,8.511 521.632,7.347 C522.541,6.183 523.607,5.279 524.829,4.633 C526.050,3.988 527.357,3.665 528.748,3.665 C530.193,3.665 531.486,4.028 532.627,4.754 C533.768,5.480 534.732,6.413 535.516,7.554 C536.301,8.695 536.898,9.963 537.309,11.357 C537.719,12.752 537.924,14.118 537.924,15.454 C537.924,17.275 537.674,18.992 537.175,20.605 C536.676,22.219 535.975,23.625 535.075,24.823 ZM534.286,11.184 C533.893,9.721 533.380,8.522 532.748,7.589 C532.114,6.655 531.397,5.970 530.594,5.532 C529.791,5.094 528.980,4.875 528.160,4.875 C527.018,4.875 526.041,5.175 525.230,5.774 C524.418,6.374 523.754,7.145 523.237,8.090 C522.719,9.036 522.341,10.101 522.100,11.288 C521.859,12.476 521.739,13.656 521.739,14.832 C521.739,16.929 521.930,18.768 522.314,20.346 C522.697,21.925 523.201,23.245 523.826,24.304 C524.450,25.365 525.172,26.160 525.993,26.690 C526.813,27.220 527.651,27.485 528.507,27.485 C529.756,27.485 530.790,27.128 531.611,26.413 C532.431,25.699 533.082,24.800 533.564,23.717 C534.045,22.634 534.384,21.447 534.580,20.156 C534.776,18.865 534.875,17.644 534.875,16.491 C534.875,14.417 534.678,12.648 534.286,11.184 ZM515.920,5.411 C515.555,5.699 515.194,6.258 514.837,7.088 L510.369,17.563 C510.226,17.909 510.137,18.306 510.102,18.756 C510.066,19.205 510.048,19.649 510.048,20.087 L510.048,23.959 C510.048,24.766 510.057,25.376 510.075,25.791 C510.093,26.206 510.168,26.517 510.302,26.725 C510.436,26.932 510.659,27.070 510.971,27.139 C511.283,27.209 511.742,27.290 512.349,27.382 L512.349,28.280 L505.152,28.280 L505.152,27.382 C505.758,27.290 506.218,27.209 506.530,27.139 C506.842,27.070 507.065,26.932 507.199,26.725 C507.333,26.517 507.408,26.206 507.426,25.791 C507.444,25.376 507.453,24.766 507.453,23.959 L507.453,18.635 L503.333,8.090 C502.887,6.961 502.455,6.160 502.036,5.687 C501.616,5.215 501.095,4.979 500.471,4.979 L500.471,4.080 L507.293,4.080 L507.293,4.979 C506.775,4.979 506.396,5.060 506.156,5.221 C505.915,5.382 505.763,5.601 505.701,5.878 C505.638,6.154 505.652,6.483 505.741,6.863 C505.830,7.243 505.955,7.653 506.116,8.090 L509.353,16.768 L513.045,8.090 C513.276,7.560 513.401,7.100 513.419,6.707 C513.437,6.316 513.370,5.993 513.218,5.739 C513.067,5.486 512.844,5.296 512.550,5.169 C512.255,5.043 511.912,4.979 511.520,4.979 L511.520,4.080 L517.031,4.080 L517.031,4.979 C516.656,4.979 516.286,5.123 515.920,5.411 ZM496.538,28.056 C496.324,27.906 496.114,27.704 495.909,27.451 C495.704,27.197 495.490,26.886 495.267,26.517 C495.044,26.149 494.799,25.745 494.532,25.307 L488.780,16.111 L488.191,16.111 L488.191,23.959 C488.191,24.766 488.200,25.376 488.218,25.791 C488.235,26.206 488.312,26.517 488.445,26.725 C488.579,26.932 488.802,27.070 489.114,27.139 C489.426,27.209 489.885,27.290 490.492,27.382 L490.492,28.280 L483.295,28.280 L483.295,27.382 C483.902,27.290 484.361,27.209 484.673,27.139 C484.985,27.070 485.208,26.932 485.342,26.725 C485.476,26.517 485.551,26.206 485.569,25.791 C485.587,25.376 485.596,24.766 485.596,23.959 L485.596,8.401 C485.596,7.595 485.587,6.984 485.569,6.569 C485.551,6.154 485.476,5.843 485.342,5.636 C485.208,5.428 484.985,5.290 484.673,5.221 C484.361,5.152 483.902,5.071 483.295,4.979 L483.295,4.080 L490.492,4.080 L490.492,4.979 C489.885,5.071 489.426,5.152 489.114,5.221 C488.802,5.290 488.579,5.428 488.445,5.636 C488.312,5.843 488.235,6.154 488.218,6.569 C488.200,6.984 488.191,7.595 488.191,8.401 L488.191,15.247 C488.601,15.201 488.954,15.068 489.248,14.849 C489.542,14.630 489.859,14.302 490.198,13.864 L495.655,6.777 C495.940,6.385 496.074,6.068 496.057,5.826 C496.038,5.584 495.932,5.400 495.735,5.273 C495.539,5.146 495.294,5.065 495.000,5.031 C494.705,4.996 494.442,4.979 494.211,4.979 L494.211,4.080 L499.160,4.080 L499.160,4.979 C498.767,5.186 498.326,5.590 497.836,6.189 C497.345,6.788 496.823,7.445 496.271,8.159 L490.759,15.281 C491.455,16.249 492.208,17.350 493.020,18.583 C493.831,19.816 494.652,21.032 495.481,22.230 C496.311,23.429 497.122,24.529 497.916,25.532 C498.709,26.534 499.427,27.278 500.069,27.762 L500.069,28.280 L497.260,28.280 C496.993,28.280 496.752,28.206 496.538,28.056 ZM478.092,24.823 C477.192,26.022 476.121,26.967 474.882,27.658 C473.642,28.349 472.282,28.695 470.802,28.695 C469.518,28.695 468.323,28.384 467.217,27.762 C466.111,27.139 465.153,26.281 464.341,25.186 C463.530,24.092 462.888,22.812 462.415,21.349 C461.943,19.885 461.706,18.312 461.706,16.629 C461.706,14.763 461.969,13.040 462.495,11.461 C463.021,9.882 463.740,8.511 464.649,7.347 C465.559,6.183 466.624,5.279 467.846,4.633 C469.068,3.988 470.374,3.665 471.765,3.665 C473.210,3.665 474.503,4.028 475.645,4.754 C476.786,5.480 477.749,6.413 478.534,7.554 C479.318,8.695 479.916,9.963 480.326,11.357 C480.736,12.752 480.942,14.118 480.942,15.454 C480.942,17.275 480.692,18.992 480.193,20.605 C479.693,22.219 478.993,23.625 478.092,24.823 ZM477.303,11.184 C476.911,9.721 476.398,8.522 475.765,7.589 C475.132,6.655 474.414,5.970 473.611,5.532 C472.809,5.094 471.997,4.875 471.177,4.875 C470.035,4.875 469.059,5.175 468.247,5.774 C467.436,6.374 466.771,7.145 466.254,8.090 C465.737,9.036 465.358,10.101 465.117,11.288 C464.877,12.476 464.756,13.656 464.756,14.832 C464.756,16.929 464.948,18.768 465.331,20.346 C465.715,21.925 466.218,23.245 466.843,24.304 C467.467,25.365 468.189,26.160 469.010,26.690 C469.830,27.220 470.669,27.485 471.525,27.485 C472.773,27.485 473.807,27.128 474.628,26.413 C475.448,25.699 476.099,24.800 476.581,23.717 C477.062,22.634 477.401,21.447 477.597,20.156 C477.793,18.865 477.892,17.644 477.892,16.491 C477.892,14.417 477.695,12.648 477.303,11.184 ZM459.071,7.744 C458.866,7.238 458.630,6.794 458.362,6.413 C458.095,6.033 457.774,5.734 457.399,5.515 C457.025,5.296 456.543,5.186 455.955,5.186 L453.547,5.186 L453.547,23.959 C453.547,24.766 453.556,25.376 453.574,25.791 C453.591,26.206 453.667,26.517 453.801,26.725 C453.935,26.932 454.158,27.070 454.470,27.139 C454.782,27.209 455.241,27.290 455.848,27.382 L455.848,28.280 L448.651,28.280 L448.651,27.382 C449.257,27.290 449.717,27.209 450.029,27.139 C450.341,27.070 450.564,26.932 450.698,26.725 C450.831,26.517 450.907,26.206 450.925,25.791 C450.943,25.376 450.952,24.766 450.952,23.959 L450.952,5.186 L448.544,5.186 C447.956,5.186 447.474,5.296 447.099,5.515 C446.725,5.734 446.404,6.033 446.136,6.413 C445.869,6.794 445.632,7.238 445.427,7.744 C445.222,8.252 445.013,8.793 444.799,9.369 L444.130,9.369 L444.852,4.080 L459.647,4.080 L460.369,9.369 L459.700,9.369 C459.486,8.793 459.276,8.252 459.071,7.744 ZM434.834,5.359 C434.433,5.613 434.089,6.177 433.804,7.053 C432.680,10.626 431.552,14.164 430.420,17.667 C429.287,21.170 428.159,24.708 427.035,28.280 L425.671,28.280 C424.850,25.261 424.003,22.156 423.129,18.963 C422.255,15.771 421.408,12.700 420.588,9.750 C420.338,8.828 420.097,8.062 419.866,7.451 C419.634,6.840 419.393,6.350 419.143,5.981 C418.893,5.613 418.635,5.354 418.368,5.203 C418.100,5.054 417.806,4.979 417.485,4.979 L417.485,4.080 L424.761,4.080 L424.761,4.979 C424.387,4.979 424.053,5.025 423.758,5.117 C423.464,5.209 423.227,5.394 423.049,5.670 C422.871,5.947 422.782,6.339 422.782,6.846 C422.782,7.353 422.889,8.021 423.103,8.851 C423.370,9.865 423.660,10.989 423.972,12.222 C424.284,13.455 424.614,14.734 424.962,16.059 C425.310,17.385 425.662,18.733 426.019,20.104 C426.375,21.476 426.732,22.818 427.089,24.132 C427.945,21.482 428.783,18.831 429.604,16.180 C430.424,13.530 431.253,10.879 432.092,8.228 C432.430,7.122 432.435,6.304 432.105,5.774 C431.775,5.244 431.155,4.979 430.246,4.979 L430.246,4.080 L436.024,4.080 L436.024,4.979 C435.632,4.979 435.235,5.106 434.834,5.359 ZM415.759,7.744 C415.554,7.238 415.318,6.794 415.050,6.413 C414.783,6.033 414.462,5.734 414.087,5.515 C413.713,5.296 413.231,5.186 412.643,5.186 L410.235,5.186 L410.235,23.959 C410.235,24.766 410.244,25.376 410.262,25.791 C410.279,26.206 410.355,26.517 410.489,26.725 C410.623,26.932 410.846,27.070 411.158,27.139 C411.470,27.209 411.929,27.290 412.536,27.382 L412.536,28.280 L405.339,28.280 L405.339,27.382 C405.945,27.290 406.405,27.209 406.717,27.139 C407.029,27.070 407.252,26.932 407.386,26.725 C407.519,26.517 407.595,26.206 407.613,25.791 C407.631,25.376 407.640,24.766 407.640,23.959 L407.640,5.186 L405.232,5.186 C404.644,5.186 404.162,5.296 403.787,5.515 C403.413,5.734 403.092,6.033 402.824,6.413 C402.557,6.794 402.320,7.238 402.115,7.744 C401.910,8.252 401.701,8.793 401.487,9.369 L400.818,9.369 L401.540,4.080 L416.334,4.080 L417.057,9.369 L416.388,9.369 C416.174,8.793 415.964,8.252 415.759,7.744 ZM397.046,30.268 C396.672,31.086 396.284,31.893 395.882,32.688 C395.481,33.483 395.155,34.111 394.906,34.572 L394.023,33.466 C394.594,32.567 395.000,31.738 395.240,30.977 C395.481,30.216 395.628,29.525 395.682,28.903 C395.735,28.280 395.731,27.716 395.668,27.209 C395.606,26.702 395.557,26.252 395.521,25.860 C395.503,25.722 395.575,25.538 395.735,25.307 C395.896,25.077 396.083,24.840 396.297,24.598 C396.511,24.356 396.712,24.149 396.899,23.976 C397.086,23.803 397.207,23.717 397.260,23.717 C397.367,23.717 397.488,23.815 397.621,24.011 C397.755,24.207 397.884,24.455 398.009,24.754 C398.134,25.054 398.237,25.365 398.317,25.687 C398.397,26.010 398.437,26.298 398.437,26.552 C398.437,26.828 398.299,27.312 398.023,28.004 C397.746,28.695 397.421,29.450 397.046,30.268 ZM386.479,27.382 C387.317,27.382 387.817,27.128 387.977,26.621 C388.138,26.114 388.111,25.480 387.897,24.719 L386.747,20.260 L379.925,20.260 L378.694,24.892 C378.515,25.561 378.547,26.143 378.788,26.638 C379.028,27.134 379.443,27.382 380.032,27.382 L380.032,28.280 L375.163,28.280 L375.163,27.382 C375.519,27.382 375.876,27.238 376.233,26.949 C376.589,26.661 376.875,26.229 377.089,25.653 C377.285,25.146 377.530,24.426 377.824,23.492 C378.119,22.559 378.444,21.493 378.801,20.294 C379.158,19.096 379.537,17.794 379.938,16.388 C380.339,14.982 380.749,13.547 381.169,12.083 C381.587,10.620 382.002,9.168 382.413,7.727 C382.823,6.287 383.215,4.933 383.590,3.665 L385.088,3.665 C385.391,4.818 385.717,6.062 386.064,7.399 C386.412,8.736 386.760,10.084 387.108,11.444 C387.455,12.804 387.803,14.140 388.151,15.454 C388.499,16.768 388.824,18.001 389.128,19.153 C389.431,20.306 389.707,21.331 389.957,22.230 C390.206,23.129 390.403,23.832 390.545,24.339 C390.831,25.307 391.121,26.056 391.415,26.586 C391.709,27.117 392.141,27.382 392.712,27.382 L392.712,28.280 L386.479,28.280 L386.479,27.382 ZM383.563,7.710 L383.509,7.710 L380.326,18.946 L386.399,18.946 L383.563,7.710 ZM366.521,27.382 C367.128,27.290 367.587,27.209 367.899,27.139 C368.211,27.070 368.434,26.932 368.568,26.725 C368.702,26.517 368.778,26.206 368.796,25.791 C368.813,25.376 368.822,24.766 368.822,23.959 L368.822,15.800 L359.432,15.800 L359.432,23.959 C359.432,24.766 359.441,25.376 359.459,25.791 C359.476,26.206 359.552,26.517 359.686,26.725 C359.820,26.932 360.043,27.070 360.355,27.139 C360.667,27.209 361.126,27.290 361.733,27.382 L361.733,28.280 L354.536,28.280 L354.536,27.382 C355.142,27.290 355.602,27.209 355.914,27.139 C356.226,27.070 356.449,26.932 356.583,26.725 C356.717,26.517 356.792,26.206 356.810,25.791 C356.828,25.376 356.837,24.766 356.837,23.959 L356.837,8.401 C356.837,7.595 356.828,6.984 356.810,6.569 C356.792,6.154 356.717,5.843 356.583,5.636 C356.449,5.428 356.226,5.290 355.914,5.221 C355.602,5.152 355.142,5.071 354.536,4.979 L354.536,4.080 L361.733,4.080 L361.733,4.979 C361.126,5.071 360.667,5.152 360.355,5.221 C360.043,5.290 359.820,5.428 359.686,5.636 C359.552,5.843 359.476,6.154 359.459,6.569 C359.441,6.984 359.432,7.595 359.432,8.401 L359.432,14.382 L368.822,14.382 L368.822,8.401 C368.822,7.595 368.813,6.984 368.796,6.569 C368.778,6.154 368.702,5.843 368.568,5.636 C368.434,5.428 368.211,5.290 367.899,5.221 C367.587,5.152 367.128,5.071 366.521,4.979 L366.521,4.080 L373.718,4.080 L373.718,4.979 C373.111,5.071 372.652,5.152 372.340,5.221 C372.028,5.290 371.805,5.428 371.671,5.636 C371.538,5.843 371.462,6.154 371.444,6.569 C371.426,6.984 371.417,7.595 371.417,8.401 L371.417,23.959 C371.417,24.766 371.426,25.376 371.444,25.791 C371.462,26.206 371.538,26.517 371.671,26.725 C371.805,26.932 372.028,27.070 372.340,27.139 C372.652,27.209 373.111,27.290 373.718,27.382 L373.718,28.280 L366.521,28.280 L366.521,27.382 ZM350.363,27.053 C349.756,27.595 349.065,28.004 348.289,28.280 C347.514,28.557 346.724,28.695 345.922,28.695 C345.066,28.695 344.263,28.597 343.514,28.401 C342.765,28.206 342.043,27.935 341.347,27.589 C341.222,27.520 341.160,27.359 341.160,27.105 L341.160,22.126 L341.855,22.126 C341.926,23.094 342.096,23.913 342.364,24.581 C342.631,25.250 342.961,25.803 343.354,26.241 C343.746,26.679 344.183,26.996 344.665,27.191 C345.146,27.387 345.645,27.485 346.163,27.485 C346.644,27.485 347.094,27.376 347.514,27.157 C347.933,26.938 348.298,26.633 348.611,26.241 C348.922,25.849 349.168,25.382 349.346,24.840 C349.524,24.299 349.614,23.717 349.614,23.094 C349.614,22.541 349.542,22.000 349.400,21.470 C349.257,20.940 349.003,20.381 348.637,19.793 C348.271,19.205 347.768,18.571 347.126,17.891 C346.484,17.212 345.663,16.445 344.665,15.592 C344.307,15.293 343.938,14.965 343.554,14.607 C343.171,14.250 342.823,13.829 342.511,13.345 C342.199,12.861 341.940,12.291 341.735,11.634 C341.530,10.977 341.427,10.176 341.427,9.231 C341.427,8.448 341.583,7.722 341.896,7.053 C342.207,6.385 342.627,5.797 343.153,5.290 C343.679,4.783 344.290,4.386 344.986,4.097 C345.681,3.809 346.412,3.665 347.179,3.665 C347.750,3.665 348.383,3.711 349.079,3.803 C349.774,3.896 350.390,4.068 350.925,4.322 C351.049,4.368 351.112,4.495 351.112,4.702 L351.112,9.231 L350.416,9.231 C350.363,8.632 350.256,8.068 350.095,7.537 C349.935,7.007 349.721,6.546 349.453,6.154 C349.186,5.763 348.851,5.451 348.450,5.221 C348.049,4.991 347.581,4.875 347.045,4.875 C346.653,4.875 346.278,4.944 345.922,5.082 C345.565,5.221 345.253,5.434 344.986,5.722 C344.718,6.010 344.504,6.379 344.343,6.828 C344.183,7.278 344.103,7.825 344.103,8.470 C344.103,9.070 344.214,9.623 344.437,10.130 C344.660,10.637 344.972,11.138 345.373,11.634 C345.775,12.130 346.252,12.642 346.805,13.172 C347.357,13.703 347.973,14.291 348.651,14.936 C349.364,15.627 349.957,16.261 350.430,16.837 C350.902,17.413 351.286,17.990 351.580,18.566 C351.874,19.142 352.084,19.730 352.209,20.329 C352.333,20.928 352.396,21.585 352.396,22.299 C352.396,23.337 352.209,24.253 351.834,25.048 C351.460,25.843 350.969,26.512 350.363,27.053 ZM331.823,27.382 C332.429,27.290 332.889,27.209 333.201,27.139 C333.513,27.070 333.736,26.932 333.870,26.725 C334.004,26.517 334.079,26.206 334.097,25.791 C334.115,25.376 334.124,24.766 334.124,23.959 L334.124,8.401 C334.124,7.595 334.115,6.984 334.097,6.569 C334.079,6.154 334.004,5.843 333.870,5.636 C333.736,5.428 333.513,5.290 333.201,5.221 C332.889,5.152 332.429,5.071 331.823,4.979 L331.823,4.080 L339.020,4.080 L339.020,4.979 C338.413,5.071 337.954,5.152 337.642,5.221 C337.330,5.290 337.107,5.428 336.973,5.636 C336.839,5.843 336.763,6.154 336.746,6.569 C336.728,6.984 336.719,7.595 336.719,8.401 L336.719,23.959 C336.719,24.766 336.728,25.376 336.746,25.791 C336.763,26.206 336.839,26.517 336.973,26.725 C337.107,26.932 337.330,27.070 337.642,27.139 C337.954,27.209 338.413,27.290 339.020,27.382 L339.020,28.280 L331.823,28.280 L331.823,27.382 ZM316.440,28.280 L316.440,27.382 C317.046,27.290 317.506,27.209 317.818,27.139 C318.130,27.070 318.353,26.932 318.487,26.725 C318.621,26.517 318.696,26.206 318.714,25.791 C318.732,25.376 318.741,24.766 318.741,23.959 L318.741,8.401 C318.741,7.595 318.732,6.984 318.714,6.569 C318.696,6.154 318.621,5.843 318.487,5.636 C318.353,5.428 318.130,5.290 317.818,5.221 C317.506,5.152 317.046,5.071 316.440,4.979 L316.440,4.080 L328.399,4.080 L328.399,9.646 L327.703,9.646 C327.632,9.001 327.543,8.407 327.436,7.866 C327.329,7.324 327.172,6.858 326.968,6.465 C326.762,6.074 326.499,5.763 326.178,5.532 C325.857,5.302 325.456,5.186 324.975,5.186 L321.336,5.186 L321.336,15.074 L323.583,15.074 C324.439,15.074 325.055,14.844 325.429,14.382 C325.804,13.922 326.009,13.150 326.045,12.066 L326.740,12.066 L326.740,19.430 L326.045,19.430 C326.009,18.393 325.817,17.592 325.469,17.027 C325.122,16.463 324.493,16.180 323.583,16.180 L321.336,16.180 L321.336,23.993 C321.336,24.731 321.403,25.313 321.537,25.739 C321.671,26.166 321.875,26.483 322.152,26.690 C322.429,26.897 322.785,27.030 323.222,27.088 C323.659,27.145 324.181,27.174 324.787,27.174 C325.750,27.174 326.495,27.082 327.021,26.897 C327.547,26.713 327.958,26.413 328.252,25.999 C328.546,25.584 328.787,25.054 328.974,24.408 C329.161,23.763 329.406,22.979 329.710,22.057 L330.405,22.057 L329.603,28.280 L316.440,28.280 ZM312.321,6.880 C312.285,7.157 312.249,7.445 312.214,7.744 C312.178,8.044 312.160,8.379 312.160,8.747 L312.160,18.496 C312.160,20.363 311.950,21.942 311.532,23.233 C311.112,24.524 310.568,25.572 309.900,26.379 C309.231,27.186 308.468,27.774 307.612,28.142 C306.756,28.510 305.900,28.695 305.044,28.695 C303.617,28.695 302.426,28.471 301.472,28.021 C300.518,27.572 299.751,26.915 299.172,26.050 C298.592,25.186 298.182,24.138 297.941,22.904 C297.700,21.672 297.580,20.271 297.580,18.704 L297.580,8.401 C297.580,7.595 297.571,6.984 297.553,6.569 C297.535,6.154 297.460,5.843 297.326,5.636 C297.192,5.428 296.969,5.290 296.657,5.221 C296.345,5.152 295.885,5.071 295.279,4.979 L295.279,4.080 L302.476,4.080 L302.476,4.979 C301.869,5.071 301.410,5.152 301.098,5.221 C300.786,5.290 300.563,5.429 300.429,5.637 C300.295,5.845 300.219,6.156 300.202,6.572 C300.184,6.987 300.175,7.599 300.175,8.407 L300.175,18.552 C300.175,19.776 300.251,20.907 300.402,21.946 C300.554,22.985 300.817,23.885 301.192,24.646 C301.566,25.408 302.074,26.008 302.716,26.447 C303.359,26.886 304.179,27.105 305.178,27.105 C307.014,27.105 308.406,26.349 309.351,24.837 C310.296,23.325 310.769,21.173 310.769,18.379 L310.769,8.753 C310.769,8.384 310.751,8.049 310.716,7.749 C310.680,7.449 310.644,7.161 310.609,6.883 C310.537,6.260 310.292,5.810 309.873,5.533 C309.454,5.256 308.932,5.071 308.308,4.979 L308.308,4.080 L314.621,4.080 L314.621,4.979 C313.979,5.071 313.453,5.255 313.043,5.532 C312.633,5.809 312.392,6.258 312.321,6.880 ZM286.264,27.382 C286.870,27.290 287.329,27.209 287.641,27.139 C287.953,27.070 288.176,26.932 288.310,26.725 C288.444,26.517 288.520,26.206 288.538,25.791 C288.555,25.376 288.564,24.766 288.564,23.959 L288.564,15.800 L279.174,15.800 L279.174,23.959 C279.174,24.766 279.183,25.376 279.201,25.791 C279.218,26.206 279.294,26.517 279.428,26.725 C279.562,26.932 279.785,27.070 280.097,27.139 C280.409,27.209 280.868,27.290 281.475,27.382 L281.475,28.280 L274.278,28.280 L274.278,27.382 C274.884,27.290 275.344,27.209 275.656,27.139 C275.968,27.070 276.191,26.932 276.325,26.725 C276.459,26.517 276.534,26.206 276.552,25.791 C276.570,25.376 276.579,24.766 276.579,23.959 L276.579,8.401 C276.579,7.595 276.570,6.984 276.552,6.569 C276.534,6.154 276.459,5.843 276.325,5.636 C276.191,5.428 275.968,5.290 275.656,5.221 C275.344,5.152 274.884,5.071 274.278,4.979 L274.278,4.080 L281.475,4.080 L281.475,4.979 C280.868,5.071 280.409,5.152 280.097,5.221 C279.785,5.290 279.562,5.428 279.428,5.636 C279.294,5.843 279.218,6.154 279.201,6.569 C279.183,6.984 279.174,7.595 279.174,8.401 L279.174,14.382 L288.564,14.382 L288.564,8.401 C288.564,7.595 288.555,6.984 288.538,6.569 C288.520,6.154 288.444,5.843 288.310,5.636 C288.176,5.428 287.953,5.290 287.641,5.221 C287.329,5.152 286.870,5.071 286.264,4.979 L286.264,4.080 L293.460,4.080 L293.460,4.979 C292.853,5.071 292.394,5.152 292.082,5.221 C291.770,5.290 291.547,5.428 291.413,5.636 C291.280,5.843 291.204,6.154 291.186,6.569 C291.168,6.984 291.159,7.595 291.159,8.401 L291.159,23.959 C291.159,24.766 291.168,25.376 291.186,25.791 C291.204,26.206 291.280,26.517 291.413,26.725 C291.547,26.932 291.770,27.070 292.082,27.139 C292.394,27.209 292.853,27.290 293.460,27.382 L293.460,28.280 L286.264,28.280 L286.264,27.382 ZM270.105,27.053 C269.498,27.595 268.807,28.004 268.032,28.280 C267.256,28.557 266.467,28.695 265.664,28.695 C264.808,28.695 264.005,28.597 263.256,28.401 C262.507,28.206 261.785,27.935 261.089,27.589 C260.964,27.520 260.902,27.359 260.902,27.105 L260.902,22.126 L261.598,22.126 C261.669,23.094 261.838,23.913 262.106,24.581 C262.373,25.250 262.703,25.803 263.096,26.241 C263.488,26.679 263.925,26.996 264.407,27.191 C264.888,27.387 265.387,27.485 265.905,27.485 C266.386,27.485 266.836,27.376 267.256,27.157 C267.675,26.938 268.040,26.633 268.353,26.241 C268.664,25.849 268.910,25.382 269.088,24.840 C269.266,24.299 269.356,23.717 269.356,23.094 C269.356,22.541 269.284,22.000 269.142,21.470 C268.999,20.940 268.745,20.381 268.379,19.793 C268.014,19.205 267.510,18.571 266.868,17.891 C266.226,17.212 265.405,16.445 264.407,15.592 C264.050,15.293 263.680,14.965 263.296,14.607 C262.913,14.250 262.565,13.829 262.253,13.345 C261.941,12.861 261.682,12.291 261.477,11.634 C261.272,10.977 261.169,10.176 261.169,9.231 C261.169,8.448 261.325,7.722 261.638,7.053 C261.949,6.385 262.369,5.797 262.895,5.290 C263.421,4.783 264.032,4.386 264.728,4.097 C265.423,3.809 266.154,3.665 266.921,3.665 C267.492,3.665 268.125,3.711 268.821,3.803 C269.516,3.896 270.132,4.068 270.667,4.322 C270.791,4.368 270.854,4.495 270.854,4.702 L270.854,9.231 L270.158,9.231 C270.105,8.632 269.998,8.068 269.837,7.537 C269.677,7.007 269.463,6.546 269.195,6.154 C268.928,5.763 268.593,5.451 268.192,5.221 C267.791,4.991 267.323,4.875 266.788,4.875 C266.395,4.875 266.021,4.944 265.664,5.082 C265.307,5.221 264.995,5.434 264.728,5.722 C264.460,6.010 264.246,6.379 264.086,6.828 C263.925,7.278 263.845,7.825 263.845,8.470 C263.845,9.070 263.956,9.623 264.179,10.130 C264.402,10.637 264.714,11.138 265.116,11.634 C265.517,12.130 265.994,12.642 266.547,13.172 C267.099,13.703 267.715,14.291 268.393,14.936 C269.106,15.627 269.699,16.261 270.172,16.837 C270.644,17.413 271.028,17.990 271.322,18.566 C271.616,19.142 271.826,19.730 271.951,20.329 C272.075,20.928 272.138,21.585 272.138,22.299 C272.138,23.337 271.951,24.253 271.576,25.048 C271.202,25.843 270.711,26.512 270.105,27.053 ZM250.281,32.014 L257.291,2.870 L258.976,2.870 L251.993,32.014 L250.281,32.014 ZM240.931,24.218 C241.350,24.967 241.890,25.572 242.550,26.033 C243.209,26.494 244.021,26.725 244.984,26.725 C245.715,26.725 246.317,26.569 246.790,26.258 C247.263,25.947 247.660,25.687 247.981,25.480 L248.409,26.552 L244.904,28.695 L244.075,28.695 C243.914,28.695 243.660,28.701 243.312,28.712 C242.965,28.724 242.559,28.661 242.095,28.522 C241.631,28.384 241.132,28.131 240.597,27.762 C240.062,27.393 239.527,26.828 238.992,26.068 C238.795,25.768 238.590,25.382 238.376,24.910 C238.162,24.437 237.966,23.913 237.788,23.337 C237.609,22.761 237.467,22.150 237.360,21.504 C237.253,20.859 237.199,20.214 237.199,19.568 C237.199,18.554 237.310,17.517 237.534,16.457 C237.757,15.397 238.113,14.429 238.604,13.553 C239.094,12.677 239.736,11.962 240.530,11.409 C241.323,10.856 242.291,10.579 243.433,10.579 C244.182,10.579 244.864,10.752 245.479,11.098 C246.095,11.444 246.620,11.928 247.058,12.550 C247.495,13.172 247.829,13.928 248.061,14.814 C248.293,15.702 248.409,16.687 248.409,17.770 L248.409,18.738 L239.741,18.738 C239.741,19.730 239.834,20.704 240.022,21.660 C240.209,22.616 240.512,23.469 240.931,24.218 ZM244.744,17.528 C245.047,17.528 245.346,17.385 245.640,17.096 C245.934,16.808 246.081,16.284 246.081,15.523 C246.081,14.970 246.005,14.463 245.854,14.002 C245.702,13.541 245.497,13.150 245.239,12.827 C244.980,12.504 244.681,12.251 244.342,12.066 C244.003,11.882 243.647,11.789 243.272,11.789 C242.826,11.789 242.389,11.882 241.961,12.066 C241.533,12.251 241.154,12.567 240.824,13.017 C240.494,13.466 240.231,14.060 240.035,14.797 C239.839,15.535 239.741,16.445 239.741,17.528 L244.744,17.528 ZM234.712,14.901 C234.551,15.017 234.417,15.028 234.310,14.936 L232.946,12.896 C232.750,12.619 232.478,12.366 232.130,12.135 C231.782,11.905 231.350,11.789 230.833,11.789 C230.440,11.789 230.012,11.899 229.548,12.118 C229.084,12.337 228.656,12.706 228.264,13.224 C227.872,13.743 227.542,14.429 227.274,15.281 C227.007,16.134 226.873,17.183 226.873,18.427 C226.873,19.349 226.958,20.300 227.127,21.279 C227.296,22.259 227.582,23.152 227.983,23.959 C228.385,24.766 228.915,25.428 229.575,25.947 C230.235,26.465 231.047,26.725 232.010,26.725 C232.741,26.725 233.338,26.569 233.802,26.258 C234.266,25.947 234.667,25.676 235.006,25.445 L235.461,26.517 L231.903,28.695 C231.742,28.695 231.443,28.701 231.006,28.712 C230.569,28.724 230.070,28.661 229.508,28.522 C228.946,28.384 228.358,28.125 227.743,27.744 C227.127,27.364 226.552,26.794 226.017,26.033 C225.803,25.734 225.589,25.348 225.375,24.875 C225.161,24.403 224.969,23.878 224.800,23.302 C224.630,22.726 224.492,22.121 224.385,21.487 C224.278,20.853 224.225,20.214 224.225,19.568 C224.225,18.209 224.412,16.975 224.786,15.869 C225.161,14.763 225.678,13.818 226.338,13.034 C226.998,12.251 227.760,11.646 228.625,11.219 C229.490,10.793 230.422,10.579 231.421,10.579 C231.920,10.579 232.482,10.649 233.107,10.787 C233.731,10.925 234.266,11.156 234.712,11.478 L235.648,13.795 C235.737,13.956 235.737,14.071 235.648,14.140 L234.712,14.901 ZM215.717,27.382 C216.288,27.290 216.720,27.203 217.015,27.122 C217.309,27.042 217.519,26.897 217.644,26.690 C217.768,26.483 217.835,26.171 217.844,25.757 C217.853,25.342 217.857,24.743 217.857,23.959 L217.857,14.382 C217.857,13.991 217.808,13.691 217.710,13.484 C217.612,13.276 217.470,13.132 217.282,13.051 C217.095,12.971 216.868,12.930 216.600,12.930 C216.333,12.930 216.038,12.930 215.717,12.930 L215.717,12.031 C216.466,11.986 217.246,11.853 218.058,11.634 C218.869,11.415 219.587,11.063 220.212,10.579 L220.265,10.649 L220.265,23.959 C220.265,24.743 220.269,25.342 220.279,25.757 C220.287,26.171 220.354,26.483 220.479,26.690 C220.604,26.897 220.814,27.042 221.108,27.122 C221.402,27.203 221.834,27.290 222.405,27.382 L222.405,28.280 L215.717,28.280 L215.717,27.382 ZM218.794,8.332 C218.366,8.332 217.995,8.137 217.684,7.744 C217.371,7.353 217.215,6.869 217.215,6.292 C217.215,5.739 217.371,5.267 217.684,4.875 C217.995,4.483 218.357,4.287 218.767,4.287 C219.195,4.287 219.565,4.489 219.877,4.892 C220.189,5.296 220.345,5.763 220.345,6.292 C220.345,6.823 220.189,7.295 219.877,7.710 C219.565,8.125 219.204,8.332 218.794,8.332 ZM210.835,24.477 C209.934,25.653 208.829,26.581 207.518,27.260 C206.207,27.941 204.722,28.280 203.063,28.280 L194.957,28.280 L194.957,27.382 C195.563,27.290 196.023,27.209 196.335,27.139 C196.647,27.070 196.870,26.932 197.004,26.725 C197.138,26.517 197.213,26.206 197.231,25.791 C197.249,25.376 197.258,24.766 197.258,23.959 L197.258,8.401 C197.258,7.595 197.249,6.984 197.231,6.569 C197.213,6.154 197.138,5.843 197.004,5.636 C196.870,5.428 196.647,5.290 196.335,5.221 C196.023,5.152 195.563,5.071 194.957,4.979 L194.957,4.080 L203.839,4.080 C205.462,4.080 206.884,4.339 208.106,4.858 C209.328,5.376 210.349,6.126 211.169,7.105 C211.990,8.085 212.605,9.283 213.015,10.700 C213.425,12.118 213.631,13.714 213.631,15.489 C213.631,17.217 213.390,18.854 212.908,20.398 C212.427,21.942 211.735,23.302 210.835,24.477 ZM208.588,7.900 C207.259,6.091 205.301,5.186 202.716,5.186 L199.853,5.186 L199.853,23.371 C199.853,24.316 199.902,25.042 200.000,25.549 C200.098,26.056 200.268,26.431 200.508,26.673 C200.749,26.915 201.074,27.059 201.485,27.105 C201.895,27.151 202.421,27.174 203.063,27.174 C204.116,27.174 205.101,26.978 206.020,26.586 C206.938,26.195 207.736,25.544 208.414,24.633 C209.091,23.723 209.622,22.530 210.006,21.055 C210.389,19.580 210.581,17.748 210.581,15.558 C210.581,12.262 209.916,9.710 208.588,7.900 ZM183.227,25.981 C182.593,26.823 181.840,27.485 180.966,27.969 C180.092,28.453 179.120,28.695 178.050,28.695 C177.194,28.695 176.365,28.505 175.562,28.125 C174.759,27.744 174.050,27.186 173.435,26.448 C172.820,25.711 172.325,24.783 171.950,23.665 C171.576,22.547 171.389,21.251 171.389,19.776 C171.389,18.577 171.553,17.425 171.883,16.318 C172.213,15.212 172.686,14.233 173.301,13.380 C173.917,12.527 174.666,11.847 175.549,11.340 C176.431,10.833 177.425,10.579 178.531,10.579 C179.370,10.579 180.186,10.764 180.979,11.133 C181.773,11.501 182.482,12.055 183.106,12.792 C183.730,13.530 184.234,14.457 184.618,15.575 C185.001,16.693 185.193,18.001 185.193,19.499 C185.193,20.743 185.023,21.925 184.685,23.043 C184.346,24.161 183.859,25.140 183.227,25.981 ZM182.304,16.820 C182.143,15.886 181.884,15.045 181.528,14.296 C181.171,13.547 180.716,12.942 180.163,12.481 C179.610,12.020 178.942,11.789 178.157,11.789 C177.586,11.789 177.051,11.951 176.552,12.273 C176.052,12.596 175.615,13.080 175.241,13.725 C174.866,14.371 174.572,15.183 174.358,16.163 C174.144,17.143 174.037,18.301 174.037,19.637 C174.037,20.743 174.131,21.775 174.318,22.731 C174.505,23.688 174.786,24.518 175.161,25.221 C175.535,25.924 175.999,26.477 176.552,26.880 C177.104,27.284 177.747,27.485 178.478,27.485 C179.031,27.485 179.552,27.330 180.043,27.018 C180.533,26.707 180.966,26.229 181.341,25.584 C181.715,24.939 182.009,24.126 182.223,23.146 C182.437,22.167 182.544,21.009 182.544,19.672 C182.544,18.704 182.464,17.753 182.304,16.820 ZM162.881,27.382 C163.452,27.290 163.884,27.203 164.179,27.122 C164.473,27.042 164.682,26.897 164.807,26.690 C164.932,26.483 164.999,26.171 165.008,25.757 C165.017,25.342 165.021,24.743 165.021,23.959 L165.021,14.382 C165.021,13.991 164.972,13.691 164.874,13.484 C164.776,13.276 164.633,13.132 164.446,13.051 C164.259,12.971 164.032,12.930 163.764,12.930 C163.496,12.930 163.202,12.930 162.881,12.930 L162.881,12.031 C163.630,11.986 164.410,11.853 165.222,11.634 C166.033,11.415 166.751,11.063 167.376,10.579 L167.429,10.649 L167.429,23.959 C167.429,24.743 167.433,25.342 167.443,25.757 C167.451,26.171 167.518,26.483 167.643,26.690 C167.768,26.897 167.978,27.042 168.272,27.122 C168.566,27.203 168.998,27.290 169.569,27.382 L169.569,28.280 L162.881,28.280 L162.881,27.382 ZM165.958,8.332 C165.530,8.332 165.159,8.137 164.848,7.744 C164.535,7.353 164.379,6.869 164.379,6.292 C164.379,5.739 164.535,5.267 164.848,4.875 C165.159,4.483 165.521,4.287 165.931,4.287 C166.359,4.287 166.729,4.489 167.041,4.892 C167.353,5.296 167.509,5.763 167.509,6.292 C167.509,6.823 167.353,7.295 167.041,7.710 C166.729,8.125 166.368,8.332 165.958,8.332 ZM157.210,27.641 C157.120,27.260 157.067,26.806 157.049,26.275 L155.257,27.658 C154.739,28.050 154.351,28.320 154.093,28.471 C153.835,28.620 153.545,28.695 153.224,28.695 C152.118,28.695 151.168,28.419 150.375,27.865 C149.581,27.312 148.930,26.604 148.422,25.739 C147.913,24.875 147.539,23.924 147.298,22.887 C147.057,21.850 146.937,20.836 146.937,19.845 C146.937,18.324 147.137,16.981 147.539,15.817 C147.940,14.654 148.470,13.685 149.131,12.913 C149.790,12.141 150.544,11.559 151.391,11.167 C152.238,10.776 153.117,10.579 154.026,10.579 C154.454,10.579 154.945,10.614 155.498,10.683 C156.050,10.752 156.568,10.914 157.049,11.167 L157.049,6.327 C157.049,5.866 156.965,5.497 156.795,5.221 C156.626,4.944 156.363,4.806 156.006,4.806 L154.909,4.806 L154.909,3.907 C155.712,3.861 156.514,3.746 157.317,3.561 C158.119,3.377 158.815,3.146 159.404,2.870 L159.457,2.939 L159.457,23.821 C159.457,24.259 159.471,24.668 159.497,25.048 C159.524,25.428 159.600,25.739 159.725,25.981 C159.849,26.223 160.037,26.373 160.286,26.431 C160.536,26.488 160.884,26.402 161.330,26.171 L161.490,27.139 L157.638,28.695 C157.441,28.372 157.299,28.021 157.210,27.641 ZM157.049,13.864 C156.692,13.126 156.238,12.596 155.685,12.273 C155.132,11.951 154.436,11.789 153.598,11.789 C152.867,11.789 152.238,12.009 151.712,12.446 C151.186,12.884 150.758,13.438 150.428,14.106 C150.098,14.775 149.857,15.500 149.706,16.284 C149.554,17.068 149.478,17.794 149.478,18.462 C149.478,19.361 149.559,20.294 149.719,21.262 C149.880,22.230 150.138,23.124 150.495,23.942 C150.852,24.760 151.315,25.428 151.886,25.947 C152.457,26.465 153.152,26.725 153.973,26.725 C154.329,26.725 154.691,26.638 155.056,26.465 C155.422,26.292 155.752,26.056 156.046,25.757 C156.341,25.457 156.581,25.112 156.769,24.719 C156.956,24.328 157.049,23.924 157.049,23.509 L157.049,13.864 ZM140.944,27.520 C140.837,27.036 140.784,26.540 140.784,26.033 L138.430,27.796 C137.859,28.211 137.400,28.464 137.052,28.557 C136.704,28.649 136.334,28.695 135.942,28.695 C135.175,28.695 134.537,28.528 134.029,28.194 C133.520,27.860 133.119,27.387 132.825,26.776 C132.531,26.166 132.325,25.451 132.210,24.633 C132.093,23.815 132.036,22.922 132.036,21.954 L132.036,14.382 C132.036,13.991 131.986,13.691 131.889,13.484 C131.790,13.276 131.648,13.132 131.461,13.051 C131.273,12.971 131.046,12.930 130.778,12.930 C130.511,12.930 130.217,12.930 129.896,12.930 L129.896,12.031 C130.627,11.986 131.402,11.853 132.223,11.634 C133.043,11.415 133.765,11.063 134.390,10.579 L134.443,10.649 L134.443,21.642 C134.443,22.288 134.470,22.910 134.524,23.509 C134.577,24.109 134.698,24.645 134.885,25.117 C135.072,25.590 135.344,25.964 135.701,26.241 C136.057,26.517 136.530,26.655 137.119,26.655 C137.743,26.655 138.282,26.540 138.737,26.310 C139.192,26.080 139.571,25.693 139.874,25.152 C140.177,24.610 140.405,23.907 140.556,23.043 C140.708,22.178 140.784,21.101 140.784,19.810 L140.784,14.382 C140.784,13.991 140.735,13.691 140.637,13.484 C140.539,13.276 140.396,13.132 140.209,13.051 C140.022,12.971 139.794,12.930 139.526,12.930 C139.259,12.930 138.965,12.930 138.644,12.930 L138.644,12.031 C139.393,11.986 140.173,11.853 140.984,11.634 C141.796,11.415 142.514,11.063 143.138,10.579 L143.192,10.649 L143.192,23.821 C143.192,24.259 143.205,24.668 143.232,25.048 C143.259,25.428 143.334,25.739 143.459,25.981 C143.584,26.223 143.771,26.373 144.021,26.431 C144.271,26.488 144.618,26.402 145.064,26.171 L145.225,27.139 L141.399,28.695 C141.203,28.395 141.051,28.004 140.944,27.520 ZM125.013,23.717 C125.040,24.178 125.111,24.627 125.227,25.065 C125.343,25.503 125.522,25.872 125.762,26.171 C126.003,26.471 126.346,26.621 126.792,26.621 C127.149,26.621 127.501,26.598 127.849,26.552 C128.197,26.506 128.531,26.391 128.852,26.206 L129.039,27.105 L125.936,28.695 C125.472,28.695 125.035,28.631 124.625,28.505 C124.215,28.378 123.858,28.125 123.555,27.744 C123.252,27.364 123.011,26.811 122.833,26.085 C122.654,25.359 122.565,24.408 122.565,23.233 L122.565,13.414 L120.425,13.414 L120.425,11.824 L122.565,11.824 L122.565,8.194 C123.047,7.526 123.609,6.880 124.251,6.258 L124.973,6.258 L124.973,11.824 L129.039,11.824 L129.039,12.723 L127.943,13.414 L124.973,13.414 L124.973,22.507 C124.973,22.853 124.986,23.256 125.013,23.717 ZM116.573,27.053 C115.966,27.595 115.275,28.004 114.499,28.280 C113.723,28.557 112.934,28.695 112.132,28.695 C111.276,28.695 110.473,28.597 109.724,28.401 C108.975,28.206 108.253,27.935 107.557,27.589 C107.432,27.520 107.370,27.359 107.370,27.105 L107.370,22.126 L108.065,22.126 C108.136,23.094 108.306,23.913 108.574,24.581 C108.841,25.250 109.171,25.803 109.563,26.241 C109.956,26.679 110.393,26.996 110.874,27.191 C111.356,27.387 111.855,27.485 112.373,27.485 C112.854,27.485 113.304,27.376 113.723,27.157 C114.142,26.938 114.508,26.633 114.820,26.241 C115.132,25.849 115.378,25.382 115.556,24.840 C115.734,24.299 115.824,23.717 115.824,23.094 C115.824,22.541 115.752,22.000 115.610,21.470 C115.467,20.940 115.213,20.381 114.847,19.793 C114.481,19.205 113.978,18.571 113.336,17.891 C112.694,17.212 111.873,16.445 110.874,15.592 C110.517,15.293 110.147,14.965 109.764,14.607 C109.380,14.250 109.033,13.829 108.721,13.345 C108.409,12.861 108.150,12.291 107.945,11.634 C107.740,10.977 107.637,10.176 107.637,9.231 C107.637,8.448 107.793,7.722 108.105,7.053 C108.417,6.385 108.837,5.797 109.363,5.290 C109.889,4.783 110.500,4.386 111.195,4.097 C111.891,3.809 112.622,3.665 113.389,3.665 C113.960,3.665 114.593,3.711 115.289,3.803 C115.984,3.896 116.600,4.068 117.134,4.322 C117.259,4.368 117.322,4.495 117.322,4.702 L117.322,9.231 L116.626,9.231 C116.573,8.632 116.466,8.068 116.305,7.537 C116.145,7.007 115.931,6.546 115.663,6.154 C115.396,5.763 115.061,5.451 114.660,5.221 C114.259,4.991 113.790,4.875 113.255,4.875 C112.863,4.875 112.488,4.944 112.132,5.082 C111.775,5.221 111.463,5.434 111.195,5.722 C110.928,6.010 110.714,6.379 110.553,6.828 C110.393,7.278 110.313,7.825 110.313,8.470 C110.313,9.070 110.424,9.623 110.647,10.130 C110.870,10.637 111.182,11.138 111.583,11.634 C111.985,12.130 112.462,12.642 113.015,13.172 C113.567,13.703 114.183,14.291 114.860,14.936 C115.574,15.627 116.167,16.261 116.640,16.837 C117.112,17.413 117.496,17.990 117.790,18.566 C118.084,19.142 118.294,19.730 118.419,20.329 C118.543,20.928 118.606,21.585 118.606,22.299 C118.606,23.337 118.419,24.253 118.044,25.048 C117.670,25.843 117.179,26.512 116.573,27.053 ZM95.893,25.134 C95.287,26.287 94.560,27.169 93.713,27.779 C92.866,28.389 91.943,28.695 90.944,28.695 C89.945,28.695 89.022,28.389 88.175,27.779 C87.328,27.169 86.601,26.287 85.995,25.134 C85.388,23.982 84.916,22.588 84.577,20.951 C84.238,19.315 84.069,17.471 84.069,15.420 C84.069,14.129 84.202,12.787 84.470,11.392 C84.738,9.998 85.152,8.730 85.714,7.589 C86.276,6.448 86.989,5.509 87.854,4.771 C88.719,4.034 89.749,3.665 90.944,3.665 C92.139,3.665 93.169,4.034 94.034,4.771 C94.899,5.509 95.613,6.448 96.174,7.589 C96.736,8.730 97.151,9.998 97.418,11.392 C97.686,12.787 97.820,14.129 97.820,15.420 C97.820,17.471 97.650,19.315 97.311,20.951 C96.972,22.588 96.500,23.982 95.893,25.134 ZM94.730,11.046 C94.560,9.767 94.346,8.719 94.088,7.900 C93.829,7.082 93.539,6.460 93.218,6.033 C92.897,5.607 92.585,5.302 92.282,5.117 C91.978,4.933 91.707,4.829 91.466,4.806 C91.225,4.783 91.051,4.771 90.944,4.771 C90.837,4.771 90.663,4.783 90.422,4.806 C90.182,4.829 89.910,4.933 89.607,5.117 C89.303,5.302 88.995,5.607 88.684,6.033 C88.371,6.460 88.082,7.082 87.814,7.900 C87.547,8.719 87.328,9.762 87.159,11.029 C86.989,12.297 86.905,13.876 86.905,15.765 C86.905,17.794 86.989,19.488 87.159,20.847 C87.328,22.208 87.547,23.325 87.814,24.201 C88.082,25.077 88.371,25.745 88.684,26.206 C88.995,26.667 89.303,27.001 89.607,27.209 C89.910,27.416 90.182,27.532 90.422,27.554 C90.663,27.578 90.837,27.589 90.944,27.589 C91.051,27.589 91.225,27.578 91.466,27.554 C91.707,27.532 91.978,27.416 92.282,27.209 C92.585,27.001 92.897,26.667 93.218,26.206 C93.539,25.745 93.829,25.077 94.088,24.201 C94.346,23.325 94.560,22.202 94.730,20.830 C94.899,19.459 94.984,17.770 94.984,15.765 C94.984,13.898 94.899,12.325 94.730,11.046 ZM69.061,28.280 L69.061,26.552 C69.738,25.561 70.380,24.645 70.987,23.803 C71.593,22.962 72.208,22.138 72.833,21.331 C73.332,20.686 73.890,19.931 74.505,19.067 C75.120,18.203 75.695,17.292 76.230,16.336 C76.765,15.380 77.216,14.388 77.581,13.363 C77.947,12.337 78.130,11.340 78.130,10.372 C78.130,9.796 78.058,9.248 77.916,8.730 C77.773,8.211 77.559,7.750 77.274,7.347 C76.988,6.944 76.645,6.627 76.244,6.396 C75.843,6.166 75.383,6.050 74.866,6.050 C74.367,6.050 73.894,6.149 73.448,6.344 C73.002,6.540 72.601,6.852 72.244,7.278 C71.887,7.704 71.584,8.246 71.335,8.903 C71.085,9.560 70.915,10.349 70.826,11.271 L70.131,11.271 L70.131,7.261 C70.880,6.039 71.731,5.134 72.686,4.547 C73.640,3.959 74.652,3.665 75.722,3.665 C76.453,3.665 77.144,3.786 77.795,4.028 C78.446,4.270 79.022,4.633 79.521,5.117 C80.020,5.601 80.413,6.206 80.698,6.932 C80.983,7.658 81.126,8.517 81.126,9.508 C81.126,10.522 80.930,11.519 80.538,12.498 C80.145,13.478 79.668,14.411 79.106,15.299 C78.545,16.186 77.956,17.010 77.341,17.770 C76.725,18.531 76.204,19.188 75.776,19.741 C75.027,20.686 74.237,21.683 73.408,22.731 C72.579,23.781 71.816,24.777 71.121,25.722 L78.611,25.722 C79.057,25.722 79.436,25.624 79.748,25.428 C80.060,25.233 80.328,24.967 80.551,24.633 C80.774,24.299 80.970,23.913 81.140,23.475 C81.309,23.037 81.474,22.565 81.634,22.057 L82.571,22.057 L80.912,28.280 L69.061,28.280 ZM65.182,25.134 C64.575,26.287 63.848,27.169 63.001,27.779 C62.154,28.389 61.231,28.695 60.233,28.695 C59.234,28.695 58.310,28.389 57.464,27.779 C56.616,27.169 55.889,26.287 55.283,25.134 C54.677,23.982 54.204,22.588 53.865,20.951 C53.526,19.315 53.357,17.471 53.357,15.420 C53.357,14.129 53.491,12.787 53.758,11.392 C54.026,9.998 54.441,8.730 55.002,7.589 C55.564,6.448 56.277,5.509 57.143,4.771 C58.007,4.034 59.037,3.665 60.233,3.665 C61.427,3.665 62.457,4.034 63.322,4.771 C64.187,5.509 64.901,6.448 65.463,7.589 C66.025,8.730 66.439,9.998 66.707,11.392 C66.974,12.787 67.108,14.129 67.108,15.420 C67.108,17.471 66.938,19.315 66.600,20.951 C66.261,22.588 65.788,23.982 65.182,25.134 ZM64.018,11.046 C63.848,9.767 63.634,8.719 63.376,7.900 C63.117,7.082 62.828,6.460 62.507,6.033 C62.186,5.607 61.873,5.302 61.570,5.117 C61.267,4.933 60.995,4.829 60.754,4.806 C60.513,4.783 60.340,4.771 60.233,4.771 C60.126,4.771 59.952,4.783 59.711,4.806 C59.470,4.829 59.198,4.933 58.895,5.117 C58.591,5.302 58.284,5.607 57.972,6.033 C57.660,6.460 57.370,7.082 57.102,7.900 C56.835,8.719 56.616,9.762 56.447,11.029 C56.277,12.297 56.193,13.876 56.193,15.765 C56.193,17.794 56.277,19.488 56.447,20.847 C56.616,22.208 56.835,23.325 57.102,24.201 C57.370,25.077 57.660,25.745 57.972,26.206 C58.284,26.667 58.591,27.001 58.895,27.209 C59.198,27.416 59.470,27.532 59.711,27.554 C59.952,27.578 60.126,27.589 60.233,27.589 C60.340,27.589 60.513,27.578 60.754,27.554 C60.995,27.532 61.267,27.416 61.570,27.209 C61.873,27.001 62.186,26.667 62.507,26.206 C62.828,25.745 63.117,25.077 63.376,24.201 C63.634,23.325 63.848,22.202 64.018,20.830 C64.187,19.459 64.272,17.770 64.272,15.765 C64.272,13.898 64.187,12.325 64.018,11.046 ZM38.349,28.280 L38.349,26.552 C39.027,25.561 39.669,24.645 40.275,23.803 C40.881,22.962 41.497,22.138 42.121,21.331 C42.620,20.686 43.178,19.931 43.793,19.067 C44.408,18.203 44.984,17.292 45.519,16.336 C46.054,15.380 46.504,14.388 46.870,13.363 C47.235,12.337 47.418,11.340 47.418,10.372 C47.418,9.796 47.347,9.248 47.204,8.730 C47.061,8.211 46.847,7.750 46.562,7.347 C46.277,6.944 45.933,6.627 45.532,6.396 C45.131,6.166 44.672,6.050 44.154,6.050 C43.655,6.050 43.182,6.149 42.737,6.344 C42.290,6.540 41.889,6.852 41.533,7.278 C41.176,7.704 40.873,8.246 40.623,8.903 C40.373,9.560 40.204,10.349 40.115,11.271 L39.419,11.271 L39.419,7.261 C40.168,6.039 41.020,5.134 41.974,4.547 C42.928,3.959 43.940,3.665 45.010,3.665 C45.742,3.665 46.433,3.786 47.084,4.028 C47.735,4.270 48.310,4.633 48.809,5.117 C49.308,5.601 49.701,6.206 49.986,6.932 C50.272,7.658 50.415,8.517 50.415,9.508 C50.415,10.522 50.218,11.519 49.826,12.498 C49.433,13.478 48.956,14.411 48.395,15.299 C47.833,16.186 47.244,17.010 46.629,17.770 C46.014,18.531 45.492,19.188 45.064,19.741 C44.315,20.686 43.526,21.683 42.696,22.731 C41.867,23.781 41.105,24.777 40.409,25.722 L47.900,25.722 C48.345,25.722 48.725,25.624 49.037,25.428 C49.349,25.233 49.616,24.967 49.839,24.633 C50.062,24.299 50.258,23.913 50.428,23.475 C50.597,23.037 50.762,22.565 50.923,22.057 L51.859,22.057 L50.201,28.280 L38.349,28.280 ZM28.840,26.780 C27.339,28.181 25.578,29.258 23.560,30.013 C21.541,30.767 19.389,31.144 17.105,31.144 C14.849,31.144 12.726,30.781 10.736,30.053 C8.746,29.326 6.993,28.272 5.477,26.891 C3.961,25.511 2.787,23.864 1.953,21.951 C1.120,20.039 0.703,17.984 0.703,15.789 C0.703,13.593 1.120,11.539 1.953,9.627 C2.787,7.714 3.965,6.067 5.488,4.687 C7.011,3.306 8.764,2.252 10.747,1.525 C12.730,0.797 14.849,0.434 17.105,0.434 C19.389,0.434 21.541,0.811 23.560,1.565 C25.578,2.320 27.339,3.397 28.840,4.798 C30.341,6.199 31.494,7.839 32.299,9.717 C33.104,11.596 33.506,13.620 33.506,15.789 C33.506,17.958 33.104,19.981 32.299,21.860 C31.494,23.739 30.341,25.379 28.840,26.780 ZM29.246,8.829 C28.081,6.755 26.432,5.141 24.300,3.987 C22.167,2.834 19.761,2.258 17.083,2.258 C14.404,2.258 11.998,2.838 9.866,3.998 C7.733,5.158 6.091,6.771 4.942,8.839 C3.791,10.907 3.217,13.223 3.217,15.789 C3.217,18.396 3.802,20.732 4.974,22.800 C6.146,24.868 7.791,26.475 9.909,27.621 C12.028,28.767 14.454,29.164 17.083,29.164 C19.727,29.164 22.163,28.764 24.289,27.611 C26.414,26.458 28.063,24.844 29.235,22.769 C30.407,20.695 30.993,18.368 30.993,15.789 C30.993,13.223 30.410,10.903 29.246,8.829 ZM16.917,25.442 C14.029,25.442 11.843,24.636 10.360,23.024 C8.877,21.412 8.136,19.030 8.136,15.878 C8.136,13.915 8.511,12.192 9.260,10.709 C10.008,9.226 11.109,8.076 12.561,7.259 C14.013,6.442 15.740,6.034 17.743,6.034 C19.027,6.034 20.158,6.128 21.136,6.313 C22.114,6.500 23.069,6.801 24.002,7.216 L24.002,11.257 L22.053,11.257 C21.701,10.326 21.323,9.602 20.918,9.086 C20.513,8.570 20.043,8.201 19.508,7.979 C18.973,7.757 18.239,7.646 17.307,7.646 C16.252,7.646 15.331,7.940 14.544,8.527 C13.757,9.115 13.146,10.000 12.710,11.182 C12.275,12.364 12.057,13.793 12.057,15.470 C12.057,16.616 12.152,17.694 12.343,18.704 C12.534,19.714 12.844,20.603 13.272,21.369 C13.700,22.136 14.254,22.738 14.934,23.175 C15.614,23.612 16.451,23.830 17.445,23.830 C18.667,23.830 19.630,23.540 20.333,22.960 C21.036,22.379 21.617,21.401 22.076,20.026 L24.025,20.026 L24.025,24.196 C22.863,24.668 21.744,24.995 20.666,25.174 C19.588,25.353 18.339,25.442 16.917,25.442 Z"/>
</svg>